<svg xmlns="http://www.w3.org/2000/svg" xmlns:xlink="http://www.w3.org/1999/xlink" viewBox="0 0 116 116"><g transform="rotate(90 58 58)" id="ss12422005910_1"><path d="M 0 0 L 116 0 L 116 116 L 0 116 Z" fill="transparent"></path><path d="M 6.159 101.736 C 7.46 105.547 10.453 108.541 14.264 109.843 C 17.202 110.845 20.201 110.277 22.616 109.62 C 25.097 108.946 28.181 107.801 31.812 106.452 L 32.063 106.359 L 90.957 84.497 L 91.212 84.403 C 95.52 82.802 99.103 81.471 101.753 80.218 C 104.235 79.043 107.255 77.355 108.853 74.367 M 6.159 101.736 L 108.853 74.367 M 6.159 101.736 C 5.155 98.798 5.723 95.799 6.38 93.384 C 7.054 90.903 8.199 87.819 9.548 84.188 L 9.641 83.937 L 31.503 25.043 L 31.597 24.788 C 33.198 20.478 34.529 16.897 35.782 14.247 C 36.957 11.765 38.645 8.745 41.635 7.147 C 45.403 5.135 49.919 5.101 53.717 7.057 C 56.731 8.61 58.464 11.604 59.675 14.068 C 60.969 16.698 62.352 20.261 64.017 24.545 L 64.114 24.798 L 69.445 38.516 C 70.706 41.764 71.022 42.467 71.415 43.017 M 6.159 101.736 L 66.844 46.277 M 108.853 74.367 C 110.867 70.598 110.9 66.08 108.943 62.281 C 107.39 59.269 104.396 57.536 101.932 56.325 C 99.302 55.031 95.739 53.648 91.455 51.985 L 91.202 51.886 L 77.484 46.555 C 74.236 45.294 73.533 44.978 72.983 44.585 M 108.853 74.367 L 66.844 46.277 M 71.415 43.017 L 66.844 46.277 M 71.415 43.017 C 71.845 43.623 72.377 44.153 72.983 44.585 M 72.983 44.585 L 69.723 49.156" fill="transparent" stroke-width="4" stroke="rgb(166, 166, 166)" stroke-miterlimit="10" stroke-dasharray=""></path><g><defs><linearGradient id="idss12422005910_4g1007442920" x1="0.007650714561253769" x2="0.9923492854387462" y1="0" y2="1"><stop offset="0" stop-color="rgb(0,0,0)" stop-opacity="1"></stop><stop offset="1" stop-color="rgb(121,139,146)" stop-opacity="1"></stop></linearGradient></defs><path d="M 14.902 85.891 C 12.047 93.584 10.618 97.429 11.471 99.923 C 12.211 102.088 13.912 103.789 16.077 104.529 C 18.571 105.38 22.416 103.953 30.109 101.098 L 89.004 79.234 C 98.056 75.873 102.581 74.193 103.902 71.722 C 105.047 69.579 105.066 67.011 103.953 64.851 C 102.671 62.361 98.172 60.614 89.17 57.117 L 75.452 51.788 C 72.47 50.628 70.979 50.05 69.723 49.156 C 68.611 48.363 67.637 47.389 66.844 46.277 C 65.95 45.023 65.37 43.53 64.212 40.548 L 58.883 26.83 C 55.386 17.83 53.639 13.331 51.147 12.047 C 48.988 10.936 46.422 10.955 44.28 12.098 C 41.807 13.419 40.127 17.944 36.766 26.996 Z" fill="url(#idss12422005910_4g1007442920)" stroke-width="7" stroke="rgb(18, 18, 18)" stroke-miterlimit="18.709677419354836"></path></g></g></svg>