<svg xmlns="http://www.w3.org/2000/svg" xmlns:xlink="http://www.w3.org/1999/xlink" viewBox="0 0 116 116"><g transform="rotate(90 58 58)" id="ss11272798927_1"><path d="M 0 116 L 116 116 L 116 0 L 0 0 Z" fill="transparent"></path><path d="M 6.159 14.264 C 7.46 10.453 10.453 7.459 14.264 6.157 C 17.202 5.155 20.201 5.723 22.616 6.38 C 25.097 7.054 28.181 8.199 31.812 9.548 L 32.063 9.641 L 90.957 31.503 L 91.212 31.597 C 95.52 33.198 99.103 34.529 101.753 35.782 C 104.235 36.957 107.255 38.645 108.853 41.633 M 6.159 14.264 L 108.853 41.633 M 6.159 14.264 C 5.155 17.202 5.723 20.201 6.38 22.616 C 7.054 25.097 8.199 28.181 9.548 31.812 L 9.641 32.063 L 31.503 90.957 L 31.597 91.212 C 33.198 95.522 34.529 99.103 35.782 101.753 C 36.957 104.235 38.645 107.255 41.635 108.853 C 45.403 110.865 49.919 110.899 53.717 108.943 C 56.731 107.39 58.464 104.396 59.675 101.932 C 60.969 99.302 62.352 95.739 64.017 91.455 L 64.114 91.202 L 69.445 77.484 C 70.706 74.236 71.022 73.533 71.415 72.983 M 6.159 14.264 L 66.844 69.723 M 108.853 41.633 C 110.867 45.402 110.9 49.92 108.943 53.719 C 107.39 56.731 104.396 58.464 101.932 59.675 C 99.302 60.969 95.739 62.352 91.455 64.015 L 91.202 64.114 L 77.484 69.445 C 74.236 70.706 73.533 71.022 72.983 71.415 M 108.853 41.633 L 66.844 69.723 M 71.415 72.983 L 66.844 69.723 M 71.415 72.983 C 71.845 72.377 72.377 71.847 72.983 71.415 M 72.983 71.415 L 69.723 66.844" fill="transparent" stroke-width="4" stroke="rgb(166, 166, 166)" stroke-miterlimit="10" stroke-dasharray=""></path><g><defs><linearGradient id="idss11272798927_4g1007442920" x1="0.007650714561253769" x2="0.9923492854387462" y1="0" y2="1"><stop offset="0" stop-color="rgb(0,0,0)" stop-opacity="1"></stop><stop offset="1" stop-color="rgb(121,139,146)" stop-opacity="1"></stop></linearGradient></defs><path d="M 14.902 30.109 C 12.047 22.416 10.618 18.571 11.471 16.077 C 12.211 13.912 13.912 12.211 16.077 11.471 C 18.571 10.62 22.416 12.047 30.109 14.902 L 89.004 36.766 C 98.056 40.127 102.581 41.807 103.902 44.278 C 105.047 46.421 105.066 48.989 103.953 51.149 C 102.671 53.639 98.172 55.386 89.17 58.883 L 75.452 64.212 C 72.47 65.372 70.979 65.95 69.723 66.844 C 68.611 67.637 67.637 68.611 66.844 69.723 C 65.95 70.977 65.37 72.47 64.212 75.452 L 58.883 89.17 C 55.386 98.17 53.639 102.669 51.147 103.953 C 48.988 105.064 46.422 105.045 44.28 103.902 C 41.807 102.581 40.127 98.056 36.766 89.004 Z" fill="url(#idss11272798927_4g1007442920)" stroke-width="7" stroke="rgb(18, 18, 18)" stroke-miterlimit="18.709677419354836"></path></g></g></svg>