<svg xmlns="http://www.w3.org/2000/svg" xmlns:xlink="http://www.w3.org/1999/xlink" viewBox="0 0 34 28"><g><defs><linearGradient id="idss12039471762_1g-1567617008" x1="0.14890377305242242" x2="0.8510962269475779" y1="3.8261053678629813e-16" y2="1"><stop offset="0" stop-color="rgb(232, 232, 232)" stop-opacity="1"></stop><stop offset="1" stop-color="rgb(255, 255, 255)" stop-opacity="1"></stop></linearGradient></defs><path d="M 33.536 27.745 L 25.011 27.745 L 19.584 20.246 L 23.752 14.844 Z" fill="url(#idss12039471762_1g-1567617008)"></path></g><path d="M 34 2.649 L 15.822 25.554 L 15.822 13.717 L 25.869 2.649 Z" fill="rgb(255,255,255)"></path><g transform="translate(15.822 9.149)" id="ss12039471762_3"><g><defs><linearGradient id="idss12039471762_4g15461008" x1="0" x2="1" y1="0.4975124378109453" y2="0.5024875621890547"><stop offset="0" stop-color="rgb(186,186,186)" stop-opacity="1"></stop><stop offset="1" stop-color="rgba(186,186,186,0)" stop-opacity="0"></stop></linearGradient></defs><path d="M 4.147 0 L 0 4.568 L 0 16.405 L 4.147 11.18 Z" fill="url(#idss12039471762_4g15461008)"></path></g></g><path d="M 11.116 11.093 L 11.116 19.209 C 11.116 20.951 10.36 21.626 9.173 21.626 C 7.878 21.626 7.014 20.845 6.978 18.677 L 0 18.677 C 0 24.79 3.885 27.917 9.46 27.917 C 15.036 27.917 18.165 24.968 18.165 19.211 L 18.165 11.095 L 11.114 11.095 Z" fill="rgb(255,255,255)"></path><path d="M 16.796 10.57 L 12.693 10.57 C 12.693 10.57 12.846 7.995 11.011 6.544 C 11.758 4.649 13.94 1.199 14.571 0.22 L 14.571 5.579 C 14.317 5.655 14.136 5.87 14.129 6.141 C 14.129 6.46 14.404 6.724 14.738 6.724 C 15.071 6.724 15.347 6.46 15.347 6.141 C 15.347 5.877 15.158 5.655 14.904 5.579 L 14.919 0.22 C 15.55 1.199 17.739 4.656 18.478 6.544 C 16.644 7.995 16.796 10.57 16.796 10.57 Z" fill="rgb(255,255,255)"></path><path d="M 18.478 6.544 C 17.732 4.649 15.549 1.199 14.919 0.22 L 14.919 5.579 C 15.172 5.655 15.361 5.877 15.361 6.141 C 15.361 6.46 15.085 6.724 14.752 6.724 L 14.752 10.57 L 16.811 10.57 C 16.796 10.57 16.644 7.995 18.478 6.544 Z" fill="rgb(255,255,255)" opacity="0.2"></path><path d="M 16.18 11.868 L 13.309 11.868 C 13.15 11.868 13.012 11.736 13.012 11.583 L 13.012 10.889 C 13.012 10.736 13.15 10.605 13.309 10.605 L 16.18 10.605 C 16.34 10.605 16.477 10.736 16.477 10.889 L 16.477 11.583 C 16.477 11.736 16.34 11.868 16.18 11.868 Z" fill="rgb(255,255,255)"></path><path d="M 16.775 11.229 L 12.715 11.229 C 12.512 11.229 12.353 11.077 12.353 10.882 L 12.353 10.244 C 12.353 10.049 12.512 9.897 12.715 9.897 L 16.775 9.897 C 16.978 9.897 17.137 10.049 17.137 10.244 L 17.137 10.882 C 17.137 11.077 16.978 11.229 16.775 11.229 Z" fill="rgb(255,255,255)"></path><path d="M 16.775 11.229 L 12.715 11.229 C 12.512 11.229 12.353 11.077 12.353 10.882 L 12.353 10.244 C 12.353 10.049 12.512 9.897 12.715 9.897 L 16.775 9.897 C 16.978 9.897 17.137 10.049 17.137 10.244 L 17.137 10.882 C 17.137 11.077 16.978 11.229 16.775 11.229 Z" fill="rgb(255,255,255)" opacity="0.4"></path><path d="M 13.867 9.901 L 13.283 9.901 L 13.283 11.237 L 13.867 11.237 Z" fill="rgb(255,255,255)"></path><path d="M 14.267 11.235 L 14.503 11.235 L 14.503 9.9 L 14.267 9.9 Z" fill="rgb(255,255,255)"></path><path d="M 23.497 6.823 L 22.287 6.823 L 22.287 7.982 L 23.497 7.982 Z" fill="rgb(255,255,255)"></path><path d="M 22.224 8.053 L 22.224 6.765 L 23.568 6.765 L 23.568 8.053 Z M 22.354 6.891 L 22.354 7.928 L 23.437 7.928 L 23.437 6.891 Z" fill="rgb(255,255,255)"></path></svg>